<?xml version="1.0" encoding="UTF-8" standalone="no"?>
<!-- Created with Inkscape (http://www.inkscape.org/) -->

<svg
   version="1.1"
   id="svg836"
   width="1280"
   height="691"
   viewBox="0 0 1280 691"
   sodipodi:docname="SVG_PHP_logo.svg"
   inkscape:version="1.1 (c68e22c387, 2021-05-23)"
   xmlns:inkscape="http://www.inkscape.org/namespaces/inkscape"
   xmlns:sodipodi="http://sodipodi.sourceforge.net/DTD/sodipodi-0.dtd"
   xmlns="http://www.w3.org/2000/svg"
   xmlns:svg="http://www.w3.org/2000/svg">
  <defs
     id="defs840" />
  <sodipodi:namedview
     id="namedview838"
     pagecolor="#ffffff"
     bordercolor="#666666"
     borderopacity="1.0"
     inkscape:pageshadow="2"
     inkscape:pageopacity="0.0"
     inkscape:pagecheckerboard="0"
     showgrid="false"
     inkscape:zoom="0.35355339"
     inkscape:cx="384.66609"
     inkscape:cy="-147.07821"
     inkscape:window-width="1931"
     inkscape:window-height="1370"
     inkscape:window-x="374"
     inkscape:window-y="-22"
     inkscape:window-maximized="0"
     inkscape:current-layer="g842" />
  <g
     inkscape:groupmode="layer"
     inkscape:label="PHP_logo"
     id="g842">
    <g
       id="g957"
       style="display:inline"
       inkscape:label="logo">
      <path
         style="display:inline;fill:#7579b1"
         d="M 592.5,671.40209 C 547.21333,667.61678 505.65419,665.13388 466.60899,659.27378 420.76778,652.3937 378.2972,641.61528 335.92415,629.83869 250.72379,611.33212 160.27145,556.87744 112,517.40136 100.04072,507.62104 77.595804,485.14636 68.656118,474 57.098024,459.5889 43.851695,440.12832 35.351336,422.94921 28.23261,408.56236 24.946418,395.47694 23.914572,391.17347 21.273534,383.83001 20.697889,378.83475 19.799779,372.7797 17.989168,360.57256 18.50698,348.44745 18.691789,337.8718 19.028214,318.6199 21.688325,304.41061 26.091656,288.26542 40.006233,237.24643 61.686155,194.59445 174.4246,128.54676 266.33746,75.927084 380.68291,36.735389 517.5,25.54386 c 35.55063,-2.908013 81.41559,-8.403658 126.28249,-7.812391 18.78119,0.281084 37.35558,0.936391 56.84629,1.945396 34.71971,1.797388 70.09222,5.027177 100.20444,8.693053 130.33668,15.867245 262.91068,50.468021 389.08698,162.118512 25.7147,25.68209 48.2121,56.41716 60.6616,90.20959 11.837,32.13003 14.3867,67.26152 9.6672,94.47478 -14.6569,84.51321 -105.6601,176.34945 -238.249,228.35454 -37.27138,14.61888 -81.28616,29.36764 -126.56921,40.18287 -26.48731,6.32613 -53.24407,10.48412 -79.77465,14.66108 C 745.02136,669.49201 666.00765,677.54627 592.5,671.40209 Z M 294.51218,539 c 1.46931,-1.375 3.0467,-3.19543 3.50533,-4.0454 0.45862,-0.84997 4.04903,-18.17497 7.97869,-38.5 3.92965,-20.32503 7.37541,-37.92138 7.65722,-39.10301 0.51125,-2.14358 0.60258,-2.14949 40.67949,-2.63359 30.44116,-0.36771 42.78301,-0.88774 50.97058,-2.14769 36.38551,-5.5992 61.71676,-18.01889 86.45565,-42.38842 7.47292,-7.36136 18.77619,-21.11409 22.87168,-27.82807 0.62195,-1.0196 -0.39235,6.02118 -2.25399,15.64618 -9.40561,48.62846 -8.82306,44.4223 -6.74081,48.67061 1.02519,2.09165 3.39303,4.82144 5.26186,6.06619 3.38475,2.25445 3.54908,2.2632 42.5156,2.2632 43.77143,0 44.15295,-0.0567 47.70789,-7.09163 C 602.42716,445.32432 637,271.57201 637,267.59355 c 0,-0.44543 13.3875,-0.60012 29.75,-0.34375 31.69737,0.49665 38.9788,1.50642 41.23282,5.7181 2.36539,4.41977 0.61431,15.78668 -14.11677,91.63748 -15.16895,78.10538 -15.16895,78.10538 -13.2675,81.9868 1.0458,2.13479 3.45793,4.91835 5.36029,6.1857 3.45885,2.30428 3.45885,2.30428 44.7962,2.0132 40.90443,-0.28803 42.0823,-3.27013 41.6048,-1.29108 C 770.23548,462.30452 758,526.41453 758,528.91294 c 0,4.40164 2.49402,8.80779 6.29855,11.12754 3.03436,1.85017 5.28908,1.95204 43.20145,1.95204 37.84707,0 40.17149,-0.10456 43.18618,-1.94275 1.7524,-1.06851 3.75664,-2.97933 4.45388,-4.24626 0.69723,-1.26693 3.49237,-20.8947 7.89027,-42.30351 4.02549,-19.59598 7.62798,-39.48993 7.62798,-39.48993 0,0 22.31425,2.17339 40.91814,1.89053 44.57886,-0.67778 57.31312,-3.03422 77.70747,-9.0158 40.73228,-11.94662 79.58378,-48.30006 95.74498,-89.58879 8.4726,-21.64575 12.2243,-41.37238 12.2281,-64.29601 0.01,-31.30172 -8.5482,-54.26075 -27.2289,-73.08668 -12.0353,-12.12894 -23.9677,-19.28633 -42.3566,-25.40679 -21.1557,-7.04133 -18.8569,-6.89359 -112.89549,-7.25527 -84.72399,-0.32584 -84.72399,-0.32584 -88.39101,3.03472 -3.64671,3.34197 -3.69048,3.47915 -7.90749,24.78729 -2.33227,11.7847 -4.81861,24.70444 -5.52519,28.71054 -0.70659,4.00609 -1.59613,6.93109 -1.97676,6.5 -0.38063,-0.4311 -1.28187,-3.66484 -2.00277,-7.1861 C 804.8375,222.89853 788.95464,205.17137 767.59095,196.91065 746.98442,188.94269 731.15562,187 686.84038,187 c -34.0572,0 -34.0572,0 -33.53807,-2.25 0.28552,-1.2375 3.5454,-17.92131 7.24418,-37.07513 7.60969,-39.40608 7.62207,-40.15631 0.74908,-45.39859 C 657.65568,99.5 657.65568,99.5 617.5,99.5 c -40.15568,0 -40.15568,0 -43.74665,2.73896 -1.97503,1.50643 -4.06044,4.20643 -4.63425,6 -0.57381,1.79357 -7.36536,35.88604 -15.09233,75.76104 -7.72698,39.875 -14.54705,74.9642 -15.15572,77.976 -1.10668,5.476 -1.10668,5.476 -3.48858,-2.77439 -4.7563,-16.47484 -13.38685,-30.39158 -26.25356,-42.33382 -16.75499,-15.55114 -39.99851,-25.39109 -68.10268,-28.8307 -5.20234,-0.63671 -39.17599,-1.03565 -88,-1.03335 -78.00122,0.004 -79.58971,0.0424 -82.83641,2.02189 -1.82059,1.10999 -3.91427,3.47081 -4.6526,5.24627 -0.73834,1.77545 -15.82204,77.7031 -33.51932,168.7281 -28.27639,145.438 -32.04444,165.92427 -31.08425,169 1.27617,4.08787 2.62772,5.94205 6.06635,8.32233 2.28789,1.58371 5.99309,1.70709 43.67036,1.45411 C 291.84072,541.5 291.84072,541.5 294.51218,539 Z M 330,374.14038 c 0,-1.3045 19.88955,-103.95593 20.614,-106.39038 0.47577,-1.59875 2.438,-1.74929 22.70339,-1.7418 31.81454,0.0118 46.85953,2.23589 55.68268,8.23165 6.23522,4.23714 7.50834,8.39014 7.437,24.26015 -0.0534,11.8753 -0.47663,15.59353 -2.7889,24.5 -5.78432,22.28021 -15.97448,37.23552 -29.89965,43.88139 -12.74111,6.08078 -20.50347,7.33772 -48.49852,7.85325 -17.40075,0.32044 -25.25,0.13571 -25.25,-0.59426 z m 561.62385,-21.28327 c 2.38132,-12.2988 7.16634,-36.91854 10.60604,-54.71585 3.22569,-16.69 6.20504,-31.79803 6.20504,-31.79803 0,0 14.49496,0.40524 28.05701,0.64823 30.61119,0.54846 37.7392,0.81098 47.4501,5.74751 4.40353,2.23853 5.93019,3.71692 8,7.74704 2.36262,4.60024 2.55083,5.9364 2.46458,17.49728 -0.10551,14.14237 -2.4978,26.2906 -7.68337,39.01671 -8.10421,19.88884 -19.09281,29.48915 -40.22325,35.14147 -6.88501,1.84172 -11.56993,2.20498 -33.6141,2.60637 -13.16872,0.23978 -25.62012,0.91027 -25.62012,0.91027 0,0 2.59706,-13.70589 4.35807,-22.801 z"
         id="path967"
         sodipodi:nodetypes="ssccsscssscscsscssssssssssssssssssssssssssssssssscssscssssssssssssssssssssscsssssssssssssssssscssssssscs"
         inkscape:label="purple_bkg" />
      <path
         style="display:inline;fill:#000000"
         d="m 215,526.67435 c 0,-1.06408 57.75617,-299.19681 62.08317,-320.46835 1.0769,-5.29401 1.0769,-5.29401 81.74686,-4.97074 86.93649,0.34837 85.32243,0.25802 104.33215,5.84063 43.47141,12.76631 66.61354,49.2469 61.90996,97.59308 -3.73993,38.44118 -16.2847,66.98848 -40.47296,92.10159 -21.65595,22.48397 -42.04543,33.89283 -70.94848,39.69894 -17.22589,3.46039 -34.99368,4.52178 -75.7728,4.52643 C 302.25581,441 302.25581,441 296.00261,473.25 c -3.43926,17.7375 -7.23015,37.2 -8.42419,43.25 -2.171,11 -2.171,11 -37.37471,11.26279 C 221.17116,527.97952 215,527.78872 215,526.67435 Z M 372.30186,388.944 c 33.91952,-2.97573 54.17516,-14.55419 65.9322,-37.68795 8.17061,-16.07692 13.04363,-36.18396 13.14916,-54.25605 0.11619,-19.89753 -5.48701,-30.54722 -19.69854,-37.43996 -12.49829,-6.06179 -17.97221,-6.75584 -57.43468,-7.28221 -19.3875,-0.2586 -35.28042,-0.0894 -35.31761,0.376 -0.0372,0.46539 -6.03561,31.22117 -13.32982,68.34617 -7.29422,37.125 -13.08724,67.8375 -12.87337,68.25 0.58018,1.11907 45.98727,0.88583 59.57266,-0.306 z M 772.51427,525.75 c 0.3038,-1.2375 14.63367,-74.7 31.84415,-163.25 l 31.29179,-161 75.42489,-0.26226 c 62.4765,-0.21724 77.41838,-0.004 87.03702,1.24246 43.71288,5.66442 72.18048,27.55824 82.10038,63.14164 1.9263,6.90967 2.1961,10.33684 2.1944,27.87816 0,17.00817 -0.3403,21.57071 -2.2644,30.5 -6.7913,31.51793 -18.5269,53.48699 -40.0912,75.05131 -18.512,18.51199 -37.2179,29.62079 -59.72509,35.46865 -18.64435,4.84421 -28.65546,5.65952 -76.08443,6.19638 -44.21406,0.50047 -44.25872,0.5031 -44.75963,2.64231 -0.27578,1.17774 -3.89785,19.69135 -8.04905,41.14135 -4.15119,21.45 -7.79564,40.0125 -8.09877,41.25 -0.55115,2.25 -0.55115,2.25 -35.96179,2.25 -35.41064,0 -35.41064,0 -34.85827,-2.25 z M 929.5,388.94681 c 28.28941,-2.43419 47.51395,-10.89194 59.19039,-26.04055 12.73571,-16.52286 21.02491,-45.08251 20.08671,-69.20617 -0.7304,-18.77826 -6.3576,-28.46134 -20.18263,-34.72993 -12.51273,-5.67354 -19.47245,-6.45503 -57.55732,-6.46297 C 896.5743,252.5 896.5743,252.5 883.93478,317.5 c -6.95173,35.75 -12.95134,66.6875 -13.33246,68.75 -0.69295,3.75 -0.69295,3.75 23.10237,3.73968 13.08742,-0.006 29.19531,-0.47496 35.79531,-1.04287 z M 519,439.9652 C 519,439.39606 533.175,366.06172 550.5,277 567.825,187.93828 582,114.82894 582,114.5348 582,114.24066 597.75,114 617,114 c 26.58416,0 35,0.28897 35,1.20177 0,0.66097 -3.6,19.75055 -8,42.42128 -4.4,22.67073 -8,41.70494 -8,42.29823 0,0.75367 12.06523,1.07872 40.03941,1.07872 22.02168,0 44.40918,0.47669 49.75,1.05931 35.49114,3.87167 55.76902,14.03483 64.97313,32.56419 4.88094,9.82613 5.74199,14.50012 5.68812,30.8765 -0.0493,15 -0.0493,15 -14.81969,90.5 -8.12369,41.525 -15.22628,77.6375 -15.78353,80.25 C 764.83427,441 764.83427,441 729.41714,441 704.46802,441 694,440.67702 694,439.90724 c 0,-0.60102 6.525,-34.63462 14.5,-75.63022 11.99862,-61.67907 14.5,-76.07311 14.5,-83.43935 0,-15.54185 -4.20228,-21.36719 -18.5,-25.6453 -3.91479,-1.17137 -13.03432,-1.5895 -42.01739,-1.92649 l -37.01739,-0.43041 -17.33015,89.33227 C 598.6035,391.30048 590.36153,433.6375 589.8196,436.25 588.83427,441 588.83427,441 553.91714,441 530.52283,441 519,440.65851 519,439.9652 Z"
         id="path959"
         inkscape:label="black_letters" />
    </g>
  </g>
</svg>
