<?xml version="1.0" encoding="UTF-8" standalone="no"?>
<!-- Created with Inkscape (http://www.inkscape.org/) -->

<svg
   version="1.1"
   id="svg824"
   width="229.75999"
   height="156.8"
   viewBox="0 0 229.75999 156.8"
   sodipodi:docname="SVP_mySQL_logo.svg"
   inkscape:version="1.1 (c68e22c387, 2021-05-23)"
   xmlns:inkscape="http://www.inkscape.org/namespaces/inkscape"
   xmlns:sodipodi="http://sodipodi.sourceforge.net/DTD/sodipodi-0.dtd"
   xmlns="http://www.w3.org/2000/svg"
   xmlns:svg="http://www.w3.org/2000/svg">
  <defs
     id="defs828" />
  <sodipodi:namedview
     id="namedview826"
     pagecolor="#ffffff"
     bordercolor="#666666"
     borderopacity="1.0"
     inkscape:pageshadow="2"
     inkscape:pageopacity="0.0"
     inkscape:pagecheckerboard="0"
     showgrid="false"
     inkscape:snap-global="false"
     inkscape:snap-others="false"
     inkscape:object-nodes="false"
     inkscape:snap-nodes="false"
     inkscape:zoom="4"
     inkscape:cx="-54.5"
     inkscape:cy="58.875"
     inkscape:window-width="3440"
     inkscape:window-height="1387"
     inkscape:window-x="-8"
     inkscape:window-y="-8"
     inkscape:window-maximized="1"
     inkscape:current-layer="g830" />
  <g
     inkscape:groupmode="layer"
     inkscape:label="mySQL_logo"
     id="g830"
     style="display:inline"
     sodipodi:insensitive="true">
    <g
       id="g1012"
       style="display:inline"
       inkscape:label="MySQL">
      <path
         style="display:inline;fill:#f2911e;stroke-width:1"
         d="m 162.42824,141.02877 -1.98408,0.39438 -1.98409,0.39437 c 0,0 -2.26349,0.26795 -3.42017,0.26061 -1.15668,-0.007 -3.51991,-0.30461 -3.51991,-0.30461 l -1.96987,-0.33285 -1.83688,-0.53233 c 0,0 -1.52721,-0.50935 -2.19938,-0.82221 -0.67217,-0.31286 -1.8669,-1.18795 -1.8669,-1.18795 0,0 -1.46239,-1.0634 -2.08553,-1.68653 -0.62313,-0.62314 -1.65329,-2.05228 -1.65329,-2.05228 l -1.14053,-2.2648 -1.14054,-2.2648 -0.64561,-2.4649 -0.64562,-2.46489 -0.36877,-2.76998 -0.36878,-2.76998 c 0,0 -0.25556,-3.84382 -0.19552,-5.71049 0.06,-1.86666 0.55578,-5.48951 0.55578,-5.48951 l 0.63205,-2.72 0.63206,-2.72 0.88354,-2.08 0.88355,-2.080003 1.12245,-2.119735 c 0,0 1.05793,-1.538554 1.62246,-2.182236 0.43478,-0.495747 1.59517,-1.4755 1.59517,-1.4755 l 1.09516,-0.944253 c 0.60106,-0.421129 1.40311,-0.969959 2.3925,-1.468754 0,0 1.17744,-0.547599 1.7675,-0.781253 0.68169,-0.269937 1.38667,-0.528986 2.08,-0.715354 0.69333,-0.186368 1.74659,-0.379968 2.455,-0.496604 1.28543,-0.21164 2.56692,-0.254701 3.90025,-0.249058 1.33334,0.0056 2.77122,0.0407 4.11637,0.299542 0.88028,0.169388 2.60006,0.619249 2.85924,0.723986 l 2.24414,0.906852 1.5488,0.82616 1.54879,1.138659 1.63373,1.48592 c 0,0 1.12725,1.218837 1.56724,1.851655 0.54115,0.778312 1.00244,1.618278 1.41528,2.471612 0.41283,0.853332 0.74402,1.755254 1.06172,2.648384 0.32473,0.9129 0.84772,2.87251 0.84772,2.87251 0,0 0.3492,1.82609 0.49417,2.78412 0.18653,1.2327 0.25202,3.73169 0.25202,3.73169 l 0.25203,3.73168 c 0,0 0.0997,2.62191 0.0148,3.92875 -0.0837,1.28889 -0.51551,3.84037 -0.51551,3.84037 l -0.6496,2.7352 -0.64961,2.7352 -0.79178,1.94859 -0.79178,1.94858 -1.47913,2.22493 -1.47913,2.22492 -1.14639,0.94496 -1.1464,0.94495 4.6865,2.33666 4.68649,2.33666 0.20571,0.11509 -0.17044,0.29729 -1.50939,2.59598 -1.50537,2.66046 c -4.22828,-2.51917 -7.85314,-4.64348 -12.19222,-7.18986 z m -0.82028,-6.5088 c 0,0 1.17996,-0.76013 1.68553,-1.19931 0.46724,-0.40587 1.19268,-1.26008 1.19268,-1.26008 0,0 0.72356,-1.08608 1.02643,-1.62582 0.39132,-0.69734 0.96955,-2.08604 0.96955,-2.08604 0,0 0.57127,-1.57462 0.7814,-2.34616 0.26414,-0.96981 0.57113,-2.86604 0.57113,-2.86604 l 0.25,-3.20926 0.23274,-4.24726 -0.16624,-4.61299 -0.30569,-2.7767 -0.47193,-2.90968 -0.60966,-1.95886 -0.70941,-1.82586 -0.73512,-1.55759 -0.98449,-1.299907 c 0,0 -0.72549,-0.893766 -1.17766,-1.260784 -0.41168,-0.334152 -0.87716,-0.778263 -1.33559,-1.028048 -0.5242,-0.285617 -1.1141,-0.535548 -1.65148,-0.701003 -0.33492,-0.103122 -0.96118,-0.367635 -1.51018,-0.459948 -0.80542,-0.135429 -1.63333,-0.186656 -2.44999,-0.196863 -0.81666,-0.01021 -1.6741,0.08273 -2.48324,0.193808 -0.46341,0.06362 -0.87733,0.167314 -1.31329,0.33683 -0.46602,0.181203 -0.90426,0.427761 -1.34654,0.660999 -0.46512,0.245283 -0.93409,0.487063 -1.37346,0.775945 -0.48016,0.315703 -1.37346,1.041933 -1.37346,1.041933 l -0.99008,1.47078 -0.99008,1.470788 -0.82946,2.67857 -0.82946,2.67858 -0.34046,2.69088 -0.14159,2.5583 -0.0884,2.80285 c -0.0315,1.00009 0.0568,2.22356 0.11048,3.2227 0.0559,1.04029 0.11391,3.21788 0.11391,3.21788 l 0.33488,3.10739 0.62935,2.33898 c 0,0 0.40695,1.45205 0.69585,2.20599 0.20531,0.53578 0.71157,1.66844 0.71157,1.66844 0,0 0.49561,0.88049 0.84457,1.33596 0.43372,0.5661 1.52447,1.62991 1.52447,1.62991 0,0 0.88784,0.87477 1.50238,1.23661 0.46995,0.2767 1.48065,0.70491 1.48065,0.70491 0,0 1.0792,0.26807 1.61828,0.35054 1.00471,0.1537 3.13109,0.11829 3.13109,0.11829 0,0 2.08498,-0.0483 3.06459,-0.31924 0.64545,-0.17854 1.73541,-0.75045 1.73541,-0.75045 z m -53.12274,6.73916 -1.44522,-0.4487 -2.12988,-0.71514 -2.30442,-1.00604 c 0.34985,0.16649 -1.19143,-0.61757 -1.70995,-0.95723 -0.46324,-0.30345 -1.543701,-0.8741 -1.543701,-0.8741 l 1.036181,-2.04299 0.96969,-1.85181 0.23587,-0.49945 3.09713,1.32243 c 0,0 1.90963,0.80707 2.9392,1.07308 0.83151,0.21484 1.72405,0.34431 2.59786,0.4234 0.70172,0.0635 1.23801,0.0552 2.09677,0.065 0.54158,0.006 1.40404,-0.0189 2.11571,-0.0726 0.53582,-0.0404 1.63005,-0.18301 1.63005,-0.18301 l 1.40445,-0.31449 c 0,0 0.90651,-0.39083 1.35742,-0.64363 0.52375,-0.29365 1.48605,-1.00681 1.48605,-1.00681 l 1.36849,-1.17138 0.5895,-1.29786 c 0,0 0.30509,-0.86331 0.40143,-1.30962 0.10768,-0.49884 0.14806,-1.45974 0.14806,-1.45974 0,0 -0.0352,-1.04162 -0.13406,-1.54204 -0.0833,-0.42146 -0.30755,-1.23674 -0.30755,-1.23674 l -0.69546,-1.18972 -0.98454,-1.23117 -1.18437,-1.23117 -1.76,-1.19771 -1.76,-1.19771 -4.98801,-2.78172 -4.98801,-2.78171 c 0,0 -1.38827,-0.88134 -1.99855,-1.42684 -0.59453,-0.53143 -1.11273,-1.14018 -1.59888,-1.77949 -0.45075,-0.59275 -1.04572,-1.28917 -1.37462,-1.95726 -0.3289,-0.66809 -0.5755,-1.31339 -0.82213,-2.01602 -0.243257,-0.69303 -0.16395,-1.45759 -0.252518,-2.18671 -0.08792,-0.72379 -0.05268,-2.18669 -0.05268,-2.18669 0,0 0.102008,-1.37678 0.194048,-2.00229 0.0992,-0.674326 0.39383,-1.335802 0.55844,-1.96702 0.15885,-0.609115 0.72281,-1.744661 0.72281,-1.744661 l 0.95789,-1.638867 c 0,0 0.98456,-1.218657 1.53561,-1.739821 0.55106,-0.521166 2.32181,-1.734366 1.57089,-1.234352 -0.34469,0.229513 0.61093,-0.429123 1.22349,-0.769395 0.45022,-0.250095 0.91548,-0.446291 0.91548,-0.446291 0,0 1.33089,-0.569311 1.99674,-0.802937 0.54526,-0.191317 1.68744,-0.501389 1.68744,-0.501389 l 1.58769,-0.31021 c 0,0 2.07396,-0.247219 3.06258,-0.249364 1.02716,-0.0022 3.06258,0.340797 3.06258,0.340797 l 2.17985,0.503946 2.17986,0.503945 2.75635,0.985923 2.75634,1.335029 -0.42428,1.042608 -0.35778,0.826493 -0.57545,1.307527 c -0.27165,0.549791 -0.44326,0.903702 -0.68708,1.397876 0,0 -1.40371,-0.46645 -1.98406,-0.642531 l -1.71037,-0.518929 c 0,0 -1.45345,-0.449956 -2.20091,-0.579869 -0.68716,-0.119432 -1.97843,-0.304809 -2.71627,-0.34713 -0.83441,-0.04786 -2.07092,0.01191 -2.07092,0.01191 0,0 -1.43058,0.09216 -2.23716,0.311149 -0.55678,0.151165 -1.80722,0.621309 -1.80722,0.621309 0,0 -0.81016,0.504707 -1.24198,0.887301 -0.4642,0.411282 -1.33924,1.443012 -1.33924,1.443012 0,0 -0.55952,1.082639 -0.74076,1.675751 -0.18476,0.6046 -0.29924,1.76359 -0.29924,1.76359 0,0 0.10015,1.33213 0.24936,1.94646 0.10512,0.43279 0.43003,1.154 0.43003,1.154 l 0.74587,1.17063 1.02763,1.1542 1.22711,1.15419 1.44,0.94903 1.44,0.94903 5.44,3.00462 5.44,3.00462 c 0,0 1.68829,1.13616 2.39138,1.83355 0.70309,0.69738 1.35613,1.49878 1.82715,2.35076 0.33823,0.6118 0.67553,1.22974 0.91986,1.88473 0.23571,0.6319 0.36817,1.28886 0.52018,1.95527 0.25883,1.13472 0.35968,2.31462 0.31292,3.47755 -0.0441,1.09576 -0.35364,2.14031 -0.55696,3.24245 -0.14388,0.77994 -0.76773,2.25203 -0.76773,2.25203 0,0 -0.76813,1.44732 -1.26147,2.11095 -0.49189,0.66168 -1.84642,1.94819 -1.84642,1.94819 l -1.96396,1.61904 -1.78747,1.09322 -2.3282,0.92866 -2.1854,0.52501 -1.85626,0.2429 c 0,0 -2.13991,0.31174 -3.16285,0.30304 -1.02294,-0.009 -2.83371,-0.21418 -2.83371,-0.21418 l -1.70383,-0.30764 z M 184.63999,115.52 v -25.6 h 4 4 v 22.56 22.56 h 8.16 8.16 v 3.04 3.04 h -12.16 -12.16 z m 30.4,23.04 V 136 h -0.96 -0.96 v -0.48 -0.48 h 2.4 2.4 v 0.48 0.48 h -0.96 -0.96 v 2.56 2.56 h -0.48 -0.48 z m 4.48,-0.48 v -3.04 h 0.89107 0.89106 l 0.78894,2.11042 0.78893,2.11042 0.19337,0.11964 0.19337,0.11965 0.75922,-2.23007 0.75922,-2.23006 h 0.88741 0.88741 v 3.04 3.04 h -0.48 -0.48 v -2.45333 -2.45334 l -0.24,0.23804 -0.24,0.23803 -0.81477,2.1353 -0.81477,2.1353 h -0.43209 -0.43208 l -0.82973,-2.32 -0.82973,-2.32 h -0.24342 -0.24341 v 2.4 2.4 h -0.48 -0.48 z"
         id="path1024"
         inkscape:label="SQL"
         sodipodi:nodetypes="cccscccscscccccccsccccccscccssssssccccssscsccscccccccccccccccccscscsccccccccccssssssssscccccccsscccscscscscsccccccscccccssssccscccscsccccccccssssscssccssscsccscccccccccscsscscscscsccccccccsssssscsccccccscccccccccccccccccccccccccccccccccccccccccccccccccccccccccccccccccc" />
      <path
         id="path3743"
         style="display:inline;fill:#0b7590;stroke-width:1"
         d="m 224.89113,91.263248 -1.05114,-0.896749 -1.6,-1.145533 -1.6,-1.145532 -3.68,-1.839661 -3.68,-1.839661 -1.93894,-1.38257 -1.93893,-1.382572 -1.62573,-1.718964 -1.62572,-1.718966 -0.65127,-1.276586 -0.65126,-1.276585 0.22969,-0.371645 0.22969,-0.371648 2.38623,-0.778086 2.38624,-0.778084 1.89877,-0.350204 1.89877,-0.350202 h 2.82123 2.82123 V 72.32 72 l -0.58148,-0.581482 -0.58148,-0.581481 -4.45852,-3.054938 -4.45852,-3.054934 -0.98544,-0.503587 -0.98544,-0.503588 -3.81361,-1.314988 -3.81361,-1.314986 -0.7022,-0.460099 -0.7022,-0.460099 -0.98441,-1.430797 -0.98442,-1.430797 -3.37927,-7.294112 -3.37927,-7.294112 -0.91382,-2.274851 -0.91382,-2.274851 -1.48804,-2.525149 -1.48803,-2.525149 -2.21127,-2.949408 -2.21126,-2.949408 -2.83102,-2.831019 -2.83102,-2.831019 -2.81988,-2.116356 -2.81988,-2.116356 -2.92945,-1.622856 -2.92944,-1.622855 -2.0616,-0.814787 -2.0616,-0.814786 -3.2,-0.294799 -3.2,-0.294799 -0.64586,-0.01077 -0.64587,-0.01078 -1.51518,-1.252071 -1.51518,-1.2520701 -2.95895,-1.4409751 -2.95896,-1.4409747 -1.39875,-0.3697245 -1.39876,-0.3697241 -0.92531,0.3832784 -0.92532,0.3832781 -0.18635,0.7424972 -0.18636,0.7424973 0.38148,1.1558851 0.38148,1.1558854 2.39631,3.219878 2.39631,3.219878 1.07623,1.961231 1.07622,1.961231 1.45717,4.410613 1.45715,4.410614 0.94673,1.875457 0.94673,1.875457 1.32573,1.531766 1.32574,1.531767 0.31184,0.684422 0.31185,0.684422 -0.49157,1.737741 -0.49157,1.737741 -0.81448,2.67969 -0.81449,2.679689 -0.19592,3.080311 -0.19593,3.08031 0.51586,2.953974 0.51586,2.953975 0.8175,2.042096 0.81751,2.042093 0.99482,1.017523 0.99481,1.017523 0.50523,-0.0973 0.50524,-0.0973 0.39597,-3.180976 0.39598,-3.180976 0.63189,-1.87114 0.63189,-1.871136 1.1629,-1.584179 L 160.3745,51.2 h 0.2777 0.27771 l 0.29285,1.04 0.29286,1.04 1.31496,2.906221 1.31496,2.906217 1.7945,3.173783 1.7945,3.173779 1.81273,2.705334 1.81272,2.705335 1.74192,1.934665 1.74191,1.934666 -1.74191,-1.617661 -1.74192,-1.617661 -2.10971,-1.805244 -2.1097,-1.805245 -1.77278,-2.177095 -1.77278,-2.177094 -1.35124,-2.699965 -1.35123,-2.699965 -0.25371,0.459965 -0.2537,0.459965 -0.50713,3.19639 -0.50712,3.196391 -0.59423,0.803609 -0.59423,0.80361 -0.87843,0.430506 -0.87845,0.430508 -1.12099,-0.2103 -1.121,-0.210301 -1.44325,-1.443258 -1.44326,-1.443257 L 150.24467,62.29695 149.19229,60 l -0.54645,-2.4 -0.54645,-2.4 -0.0177,-3.538323 -0.0177,-3.538323 0.89153,-3.981677 0.89153,-3.981677 0.43647,-0.864109 0.43647,-0.864109 v -0.131891 -0.131888 l -0.99023,-1.244003 -0.99022,-1.244 -1.02903,-1.76 -1.02903,-1.76 -1.16112,-2.88 -1.16112,-2.88 -0.97266,-3.005537 -0.97266,-3.005537 -0.53369,-0.834463 -0.53369,-0.834463 -2.53421,-3.451814 -2.53421,-3.451815 -0.61204,-1.348185 -0.61204,-1.348186 -0.007,-1.0989683 -0.007,-1.098968 L 135.68,5.5999408 136.32003,4.2778179 137.56357,3.5789091 138.80713,2.88 h 1.2492 1.2492 l 1.90723,0.4924576 1.90723,0.4924576 2.48817,1.266553 2.48816,1.2665526 1.5568,1.2305853 1.55681,1.2305856 2.85167,0.2024173 2.85168,0.2024176 2.86336,0.8237854 2.86335,0.823786 2.94448,1.749638 2.94447,1.749638 3.29553,2.436408 3.29552,2.436408 3.53753,3.558155 3.53754,3.558155 1.88597,2.56 1.88597,2.56 1.48915,2.4 1.48914,2.4 2.25434,5.28 2.25434,5.28 2.44349,4.96 2.44349,4.96 0.54952,0.676378 0.54952,0.676374 3.52,1.529866 3.52,1.529865 3.1463,2.086842 3.14631,2.086838 2.77369,2.217459 2.7737,2.217456 1.52,1.795613 1.52,1.79561 v 0.21168 0.211683 l -1.84,0.505827 -1.84,0.505827 -2.56,0.342064 -2.56,0.342061 -1.57086,0.474279 -1.57085,0.474278 h -0.74915 -0.74914 v 0.308864 0.308867 l 0.98913,1.12656 0.98914,1.126557 2.45086,1.508451 2.45087,1.508451 1.78709,1.381757 1.78708,1.38176 2.56038,2.794365 2.56037,2.794368 0.3838,0.72 0.3838,0.72 h -0.16013 -0.16012 z M 156.14699,22.775922 c -0.16068,-0.417728 -0.45581,-0.778626 -0.67971,-1.15794 -0.36421,-0.617017 -0.76958,-1.208743 -1.2845,-1.74474 -0.17694,-0.18419 -0.41853,-0.376983 -0.53972,-0.56524 -0.14531,-0.225748 -0.41021,-0.441867 -0.36886,-0.688576 0.0358,-0.213814 0.12849,-0.309071 0.36049,-0.392857 0.11368,-0.04105 0.68637,-0.07967 0.79226,-0.07124 0.21153,0.01684 0.7718,-0.02242 1.23992,0.05565 0.11037,0.01841 0.21099,0.04922 0.33689,0.105529 0.37432,0.167408 0.5613,0.399336 0.69951,0.521948 0.71687,0.635955 0.83204,0.944229 1.09488,1.506671 0.24011,0.513819 0.47293,1.086176 0.41419,1.650281 -0.0676,0.649069 -0.36511,1.33171 -0.85754,1.759928 -0.19038,0.165558 -0.49129,0.340691 -0.71986,0.233878 -0.39493,-0.184547 -0.32467,-0.809125 -0.48795,-1.213309 0,0 0.0416,0.108067 0,10e-6 z"
         inkscape:label="dolphin" />
      <path
         id="path1014"
         style="display:inline;fill:#0b7590;stroke-width:1"
         d="m 61.679997,154.01164 -1.52,-0.524 v -2.15259 -2.15258 l 2.96,0.0159 2.96,0.0159 1.28,-0.54276 1.28,-0.54276 1.227114,-1.18438 1.227116,-1.18438 0.644883,-1.24997 0.644887,-1.24998 v -1.81557 -1.81557 l -0.7044,-2.53446 -0.7044,-2.53445 -4.9276,-15.34084 -4.9276,-15.34083 v -0.26873 -0.26872 l 4.037443,0.0896 4.037443,0.0896 3.497123,11.36 3.497127,11.36 0.643766,2.4 0.643766,2.4 0.189108,2.33656 0.189104,2.33656 0.232668,-0.25656 0.232669,-0.25656 1.307799,-4 1.307798,-4 0.960029,-3.52 0.960025,-3.52 0.933415,-4.48 0.933414,-4.48 0.569315,-3.92 0.569318,-3.92 h 3.949335 3.949334 v 0.14604 0.14604 l -0.983411,4.73396 -0.983408,4.73396 -1.255543,4.88268 -1.255542,4.88267 -1.150889,3.56006 -1.15089,3.56005 -1.428691,3.55727 -1.428694,3.55727 -1.542951,2.93285 -1.542953,2.93285 -1.517763,2.26219 -1.517767,2.26219 -2.470214,2.36003 -2.470211,2.36003 -2.169952,1.06826 -2.169949,1.06827 -2.760585,0.0845 -2.760586,0.0845 z M 3.0049172,134.8 l 0.2200212,-6.32 0.4711482,-7.52 0.4711481,-7.52 0.4717641,-5.28 0.4717642,-5.28 0.7012393,-6.487482 0.7012393,-6.487478 5.2935074,0.08748 5.293507,0.08748 6.200013,18.83386 6.200014,18.83386 0.260561,-0.27386 0.26056,-0.27386 6.127865,-18.64 6.127862,-18.64 h 5.049632 5.049632 l 0.859046,8.08 0.859046,8.08 0.461133,5.28 0.461136,5.28 0.475069,7.68 0.475072,7.68 0.199046,4.56 0.19905,4.56 h -4.182499 -4.182496 l -0.0032,-0.4 -0.0032,-0.4 -0.315987,-8 -0.315991,-8 -0.493072,-7.2 -0.493072,-7.2 -0.468662,-4.77428 -0.468659,-4.77428 -0.15152,-0.15152 -0.15152,-0.15152 -0.166202,0.4458 -0.166201,0.4458 -4.499181,14.08 -4.499184,14.08 -1.92447,6.01095 -1.92447,6.01095 -3.2194,-0.0909 -3.219413,-0.0909 -6.357755,-20 -6.357755,-20 -0.211929,-0.48 -0.211929,-0.48 -0.243194,1.76 -0.243193,1.76 -0.493395,8.96 -0.493396,8.96 -0.180742,7.84 -0.180741,7.84 -0.176721,2 -0.176721,2 H 6.4869776 2.7848961 Z"
         inkscape:label="my" />
    </g>
  </g>
</svg>
