<?xml version="1.0" encoding="UTF-8" standalone="no"?>
<!-- Created with Inkscape (http://www.inkscape.org/) -->

<svg
   version="1.1"
   id="svg1671"
   width="224.29422"
   height="211.85219"
   viewBox="0 0 224.29422 211.85219"
   sodipodi:docname="SVG_myEmail.svg"
   inkscape:version="1.1 (c68e22c387, 2021-05-23)"
   xmlns:inkscape="http://www.inkscape.org/namespaces/inkscape"
   xmlns:sodipodi="http://sodipodi.sourceforge.net/DTD/sodipodi-0.dtd"
   xmlns:xlink="http://www.w3.org/1999/xlink"
   xmlns="http://www.w3.org/2000/svg"
   xmlns:svg="http://www.w3.org/2000/svg">
  <defs
     id="defs1675">
    <linearGradient
       inkscape:collect="always"
       id="linearGradient67726">
      <stop
         style="stop-color:#8aa8be;stop-opacity:1"
         offset="0"
         id="stop67724" />
      <stop
         style="stop-color:#fffffa;stop-opacity:1;"
         offset="1"
         id="stop67722" />
    </linearGradient>
    <radialGradient
       inkscape:collect="always"
       xlink:href="#linearGradient67726"
       id="radialGradient67728"
       cx="108.68596"
       cy="119.15832"
       fx="108.68596"
       fy="119.15832"
       r="102.9785"
       gradientTransform="matrix(0.62652609,-1.2479922,1.2170543,0.61099445,-84.857937,194.44342)"
       gradientUnits="userSpaceOnUse" />
  </defs>
  <sodipodi:namedview
     id="namedview1673"
     pagecolor="#ffffff"
     bordercolor="#666666"
     borderopacity="1.0"
     inkscape:pageshadow="2"
     inkscape:pageopacity="0.0"
     inkscape:pagecheckerboard="true"
     showgrid="false"
     inkscape:snap-global="true"
     inkscape:zoom="2"
     inkscape:cx="43.25"
     inkscape:cy="16.75"
     inkscape:window-width="2067"
     inkscape:window-height="1253"
     inkscape:window-x="378"
     inkscape:window-y="42"
     inkscape:window-maximized="0"
     inkscape:current-layer="g1677"
     fit-margin-left="2"
     fit-margin-top="2"
     fit-margin-bottom="2"
     fit-margin-right="2" />
  <g
     inkscape:groupmode="layer"
     inkscape:label="Image"
     id="g1677"
     style="display:inline"
     transform="translate(-0.2781461,-1.3587566)">
    <g
       id="g1815"
       style="display:inline">
      <path
         style="display:inline;fill:url(#radialGradient67728);fill-opacity:1;stroke:#000000;stroke-width:0;stroke-linecap:butt;stroke-linejoin:miter;stroke-miterlimit:4;stroke-dasharray:none;stroke-opacity:1"
         d="m 86.703607,7.975478 1.882044,-1.3204636 2.631124,-1.1749369 3.24448,-1.1954635 3.119481,-0.5928301 4.679224,-0.051777 3.98283,0.6026335 4.5962,1.7677669 9.67094,4.3890877 58.03453,27.253941 12.02082,5.480078 c 0,0 2.18289,1.576018 3.13778,2.607456 1.00319,1.083595 2.51907,3.579728 2.51907,3.579728 l 25.98618,90.509672 c 0,0 0.38976,2.72612 0.17677,4.06586 -0.15809,0.99443 -0.46397,2.01735 -1.06066,2.82843 -0.39813,0.54118 -1.59099,1.23743 -1.59099,1.23743 L 186.67619,160.69002 56.922096,211.0294 c -5.007791,0.95133 -7.170889,-2.03422 -8.348927,-6.34508 L 16.970563,93.691648 c 0,0 -0.577548,-2.411386 -0.464039,-3.623922 0.08445,-0.902156 0.438005,-1.77316 0.839689,-2.585359 0.821518,-1.661098 3.535534,-4.529903 3.535534,-4.529903 L 31.996582,70.533901 c 0,0 16.23541,-20.026267 24.727835,-29.502805 C 65.932859,30.755568 74.171938,22.053199 83.608186,10.95847 84.528518,9.8763838 86.703607,7.975478 86.703607,7.975478 Z"
         id="path62235"
         sodipodi:nodetypes="cccccccccccsccsscccccssccssc"
         inkscape:label="envelopeFill" />
      <path
         style="display:inline;fill:#fffff0;fill-opacity:1;stroke:#323232;stroke-width:0;stroke-linecap:butt;stroke-linejoin:miter;stroke-miterlimit:4;stroke-dasharray:none;stroke-opacity:1"
         d="M 167.93786,3.3587572 183.52159,58.48 147.78532,108.01056 101.71967,119.95703 38.537319,94.221978 21.434174,32.836271 Z"
         id="path44017"
         inkscape:label="paper" />
      <path
         id="path1875"
         style="display:inline;fill:#c3d9e3;stroke-width:1"
         d="m 164.28711,57.279297 c -0.43392,0 -95.248601,23.578648 -97.726563,24.302734 -1.023685,0.299131 -7.757513,2.010459 -7.907841,2.090721 -0.379347,0.202539 8.070796,-1.796951 12.433232,-2.850486 11.683554,-2.821596 93.213432,-23.254447 93.355472,-23.396485 0.0801,-0.08013 0.0106,-0.146484 -0.1543,-0.146484 z m 2.37305,16.742187 c -0.25527,0.102151 -0.17942,0.178 0.19336,0.19336 0.3373,0.0139 0.52626,-0.06164 0.41992,-0.167969 -0.10633,-0.10632 -0.38228,-0.117831 -0.61328,-0.02539 z m -0.65625,0.355469 c -0.20424,-0.20424 -2.94555,0.49902 -31.92383,8.1875 -11.176,2.9652 -22.19247,5.886716 -24.48047,6.492188 -2.288,0.605476 -9.704469,2.568301 -16.480469,4.361328 -15.546042,4.113709 -29.601995,7.928641 -29.773047,8.093781 -0.492135,0.47515 2.607821,-0.38231 85.710546,-22.498078 9.20538,-2.449789 16.82564,-4.453125 16.93359,-4.453125 0.1079,0 0.11415,-0.08308 0.0137,-0.183594 z m -33.25196,26.503907 c 0.0105,-0.0426 -0.0275,-0.0438 -0.11718,0.006 -14.51607,3.77552 -42.034086,11.83615 -42.034086,11.83615 l 1.037006,0.39689 c 0,0 0.6233,-0.16382 0.682777,-0.202 0.352002,-0.16197 9.467093,-2.78891 20.255863,-5.83789 10.78877,-3.04899 19.78876,-5.73074 19.99999,-5.95899 0.10561,-0.11397 0.16525,-0.19761 0.17578,-0.24023 z"
         sodipodi:nodetypes="ssssssssssssssssssscccccsccc"
         inkscape:label="linesLetter" />
      <path
         id="path1859"
         style="display:inline;fill:#a6bac7;stroke-width:1"
         d="m 99.996094,3.4140625 c -3.637968,0.093887 -7.404752,0.9579536 -10.53711,2.5097656 -3.618838,1.7928208 -3.758748,1.9325611 -15.478515,15.5957029 -0.399975,0.466309 -0.403629,0.561219 -0.0293,0.560547 0.24728,-4.52e-4 2.670521,-2.602825 5.384766,-5.78125 C 85.100452,9.5485074 86.522796,8.1998078 89.560547,6.6035156 92.80704,4.897532 96.111042,4.111066 100.16016,4.0839844 c 4.73429,-0.031663 6.60799,0.5234531 14.96484,4.4277344 4.00099,1.8692462 7.70632,3.4609792 8.23438,3.5371092 l 0.96093,0.138672 -0.96093,-0.546875 C 120.58517,10.060308 108.31392,4.6520122 106.24023,4.0957031 104.31515,3.5792595 102.17887,3.3577303 99.996094,3.4140625 Z M 182.72623,56.656503 c -8.13317,11.718334 -16.2847,23.444218 -24.52343,35.129546 l 2.66155,0.293464 c 0,0 0.6039,-0.749563 2.25474,-2.85879 1.04991,-1.462074 7.71315,-10.722125 14.80859,-20.578125 7.09544,-9.856 13.49913,-18.945864 14.34375,-20.236328 l 1.62891,-2.376953 1.07617,1.419922 c 1.09565,1.727664 0.6557,0.826843 7.57617,25.353515 3.02928,10.736 5.83168,20.667093 6.22852,22.070313 l 0.72266,2.550781 c 4.32512,15.595702 6.30982,21.035932 7.88671,28.130862 1.18156,4.69146 1.60889,5.61536 2.39614,8.43763 0.5886,2.11011 1.57687,4.88931 2.02231,6.63355 0.29555,1.15733 0.1772,1.7628 0.1772,1.7628 0,0 -0.46859,-1.26165 -1.10194,-1.86642 -1.58798,-1.21283 -2.93553,-2.56663 -4.6975,-3.5128 -8.05141,-4.32354 -22.35179,-11.3256 -33.3529,-16.80828 l -0.28589,0.73379 c 0,0 13.41803,6.69346 15.07496,7.51816 13.45585,6.71191 20.92285,10.71394 22.34179,11.97266 0.88726,0.78707 1.78107,2.92351 1.78907,4.2793 0.0126,2.12559 -0.69193,2.5637 -9.11329,5.67578 -4.22398,1.56096 -27.47968,10.4982 -51.67968,19.86133 -20.06074,8.02093 -49.84328,19.47768 -66.742613,26.08171 -10.906199,4.49135 -26.99505,10.56419 -35.26987,13.74808 -1.478341,0.56882 -2.775592,1.08879 -3.699746,1.03381 -0.478274,-0.0284 -1.202928,-0.40135 -1.65601,-0.9027 -1.19236,-1.33833 -1.324941,-2.21335 -1.454626,-4.54629 -0.0337,-1.08363 0.290933,-1.65147 0.502186,-2.15352 2.56713,-6.10086 9.187144,-16.42474 9.187144,-16.42474 l -1.151681,0.10623 c 0,0 -6.190375,10.36674 -7.007755,11.86993 -0.817379,1.50318 -1.698805,3.51965 -1.957031,4.48047 -0.106567,-0.0648 -0.469657,2.57397 -0.117316,3.7075 0.300434,0.96654 0.782954,1.96407 1.195405,2.39335 0.28681,0.29851 0.881358,0.92667 0.881358,0.92667 0,0 -1.200212,-0.42617 -1.735244,-0.76208 -0.437467,-0.27465 -1.17775,-1.00708 -1.17775,-1.00708 -1.215829,-1.03964 -2.166408,-5.23809 -2.440124,-6.18783 -1.13355,-3.9332 -1.859968,-7.0138 -2.656257,-9.7227 -0.733118,-2.49399 -1.269371,-4.41449 -1.269371,-4.41449 l -1.089077,-0.0497 c 0,0 1.332315,4.44372 1.474781,4.94878 2.600951,9.23696 3.646764,13.00459 4.451516,14.37779 0.72296,0.95362 1.581484,1.87149 2.402341,2.39782 4.126551,2.64593 9.161728,-0.34068 11.808252,-1.30296 8.613011,-3.14554 10.039159,-3.69436 64.080078,-24.67187 93.41258,-36.26073 92.11918,-35.7492 93.34375,-36.85742 1.59362,-1.44219 2.0843,-3.85528 1.42383,-7 -0.25682,-1.22277 -3.51214,-13.02266 -7.23438,-26.22266 -19.05096,-67.559168 -18.19903,-65.399542 -21.23728,-68.568359 -0.0137,0.0317 -1.19703,-1.365654 -3.44354,-2.507554 -2.98692,-1.518244 -13.0718,-6.421227 -13.0718,-6.421227 0,0 0.17168,0.627726 0.10813,0.581174 -0.32834,-0.240478 5.56918,2.589293 10.43928,5.007487 1.97087,0.978614 3.17948,1.48008 4.21162,2.185772 0.55783,0.3814 1.15485,0.902483 1.36295,1.223003 0.1407,0.216716 -0.0194,0.316296 -0.0194,0.316296 0,0 -2.12373,3.25627 -2.46704,3.61011 -0.81709,0.842153 -0.90078,0.468003 -0.90078,0.468003 0,0 -2.19234,-0.930836 -3.82964,-1.732722 -3.98125,-1.949861 -6.55411,-3.192478 -6.55411,-3.192478 0,0 2.16096,8.076455 3.07521,11.598688 z M 32.34375,70.40625 c -0.0414,-0.02607 -0.125517,-0.01335 -0.25,0.03711 -0.158553,0.06427 -2.038674,2.10717 -4.271484,4.541016 -9.942655,10.837866 -10.763758,12.056276 -11.304688,14.298828 -0.344114,1.426604 0.125342,3.320476 0.376953,4.662109 1.05688,5.635481 3.08197,12.028027 4.800781,18.505857 4.904978,18.4858 10.924166,37.59594 12.103516,42.32813 l 1.001953,-0.31055 c -3.159258,-10.56338 -9.433356,-32.98465 -15.058593,-52.84961 -0.471953,-1.724141 -0.71271,-2.099077 -1.794922,-6.072264 -0.342127,-1.256073 -0.614304,-2.981553 -0.708985,-4.365234 -0.06909,-1.009642 0.0923,-2.541016 0.154297,-2.541016 0.062,0 1.634598,0.636937 3.494141,1.416016 1.859544,0.779078 7.460811,2.926306 12.447265,4.771484 52.393153,19.387474 64.713925,24.159594 68.385686,25.128904 0.19768,-0.15352 1.82142,0.57585 2.90609,0.0232 3.54281,-1.80502 9.98345,-6.17745 9.98345,-6.17745 0,0 -10.65347,4.03561 -11.93715,3.59093 C 94.255158,114.47805 74.262407,106.67827 71.275391,105.59766 53.985635,99.045173 39.551219,93.50254 39.199219,93.28125 38.720278,92.980156 38.124465,91.31899 36.830078,86.679688 35.878766,83.27001 35.047982,80.378925 34.982422,80.255859 c -0.06555,-0.123069 -1.447178,1.241929 -3.070313,3.033203 -1.623134,1.791277 -3.840374,4.195961 -4.925781,5.34375 l -1.972656,2.087891 -3.707031,-1.244141 c -2.038593,-0.684201 -3.766328,-0.71186 -3.707032,-1.53125 0.04658,-0.643681 0.495427,-1.164761 2.367188,-3.382812 2.040399,-2.417889 5.002872,-5.603588 6.53125,-7.234375 4.353397,-4.638293 6.13547,-6.739407 5.845703,-6.921875 z"
         sodipodi:nodetypes="sssssssscccssccccscccscccssccscccscsccssccsccscsscssssccccscsssccscsssscscsccsssssscccssssscscscsssscccsscs"
         inkscape:label="outline" />
      <path
         style="display:inline;fill:#f29639;stroke-width:1"
         d="M 46.230704,75.132614 C 46.106576,74.553677 44.581888,68.115869 42.842509,60.826374 41.10313,53.53688 39.68,47.41151 39.68,47.214438 c 0,-0.263968 17.16241,-4.435705 19.645702,-4.77536 0.27888,-0.03815 1.137056,2.686189 1.146903,3.640922 0.0037,0.363584 -1.662586,0.862986 -6.870602,2.05912 -3.781555,0.868518 -7.008291,1.661158 -7.170528,1.761427 -0.468185,0.289357 1.337293,7.520634 1.899194,7.606608 C 48.5888,57.54665 51.392,56.959651 54.56,56.202714 l 5.76,-1.37625 0.358515,1.153651 c 0.197184,0.634506 0.452055,1.582551 0.566384,2.106765 l 0.207866,0.95312 -6.107383,1.424534 c -3.359059,0.783495 -6.156086,1.503495 -6.215616,1.6 C 48.927053,62.393158 50.952157,70.4 51.237984,70.4 c 0.156512,0 3.542797,-0.792 7.525082,-1.76 3.982281,-0.968 7.336896,-1.76 7.454697,-1.76 0.273559,0 1.078131,3.850771 0.851853,4.07705 -0.09319,0.09319 -4.529978,1.233232 -9.859526,2.533427 -5.329549,1.300192 -9.929402,2.438409 -10.221895,2.529369 -0.396569,0.123328 -0.589193,-0.102284 -0.757491,-0.887232 z M 69.777946,55.44 c -1.823773,-7.7 -3.371978,-14.155693 -3.440455,-14.345984 -0.196009,-0.544678 7.322803,-2.125046 7.791616,-1.637709 0.669824,0.696295 9.902093,14.419709 11.179274,16.617562 0.68839,1.18463 1.359619,2.15663 1.491619,2.16 0.132,0.0034 0.24,-0.567261 0.24,-1.268071 0,-1.255129 2.470781,-21.497798 2.635395,-21.591321 0.07998,-0.04544 6.487962,-1.461488 7.084752,-1.565603 0.232215,-0.04051 6.869463,26.701475 6.907663,27.831545 0.007,0.198231 -1.13981,0.649725 -2.54781,1.003322 -1.408,0.353597 -2.56,0.600189 -2.56,0.547981 0,-0.05221 -0.929443,-4.0317 -2.06543,-8.843322 -1.135988,-4.811619 -2.230768,-9.7204 -2.432848,-10.9084 -0.202084,-1.188 -0.475396,-2.16 -0.607364,-2.16 -0.131968,0 -0.334355,1.188 -0.449753,2.64 -0.354919,4.465824 -2.657091,21.062186 -2.95944,21.334621 -0.269399,0.242742 -3.083539,1.025027 -3.198176,0.88904 C 86.242653,65.426774 74.533907,48.10504 74.087232,47.267075 73.436003,46.04537 72.792006,45.645331 73.077744,46.64 c 0.08848,0.308 0.452285,1.568 0.808461,2.8 C 74.505741,51.582957 78.4,67.701491 78.4,68.122826 c 0,0.163689 -4.497482,1.317907 -5.133053,1.317331 C 73.171766,69.44007 71.601715,63.14 69.777946,55.44 Z m 39.819874,4 c 0.10275,-0.572 1.18676,-7.433485 2.40891,-15.247741 1.22215,-7.814259 2.28196,-14.267613 2.35513,-14.340789 0.26569,-0.265684 4.17095,-1.068977 4.52898,-0.931587 0.6483,0.248771 17.81828,24.579243 17.53844,24.852584 -0.36207,0.353671 -4.57778,1.31241 -4.89871,1.114067 -0.13978,-0.08639 -1.13897,-1.448944 -2.22041,-3.027894 -1.08145,-1.578954 -2.07411,-2.937475 -2.20593,-3.018941 -0.13181,-0.08147 -2.68419,0.454368 -5.67195,1.190739 L 116,51.369302 l -0.56853,3.827882 c -0.3127,2.105334 -0.6727,3.919408 -0.8,4.031274 -0.24498,0.215264 -4.27878,1.251542 -4.87174,1.251542 -0.21843,0 -0.27893,-0.388586 -0.16191,-1.04 z M 121.02529,45.831754 124.45057,44.96 121.36558,40.406374 c -1.69675,-2.504496 -3.1274,-4.511219 -3.17923,-4.459388 -0.0924,0.09237 -1.38635,9.860342 -1.38635,10.465254 0,0.445411 0.42228,0.387395 4.22529,-0.580486 z m 21.21516,6.256105 c -0.25321,-0.709795 -6.545,-27.251203 -6.47107,-27.297652 0.14957,-0.09397 4.86182,-1.064603 4.89841,-1.008976 0.10969,0.166775 6.27756,26.463675 6.32108,26.950119 0.0503,0.562605 -0.17445,0.655901 -3.7159,1.542343 -0.59767,0.1496 -0.93449,0.08898 -1.03252,-0.185834 z m 7.07445,-15.512803 c -1.74081,-7.356281 -3.22167,-13.52758 -3.29081,-13.713998 -0.11299,-0.30466 4.61315,-1.650353 4.82315,-1.373317 0.0468,0.06174 1.28255,5.224259 2.7461,11.472259 1.46354,6.248 2.74856,11.461597 2.8556,11.58577 0.10703,0.124176 1.61376,-0.134592 3.34829,-0.575034 1.73453,-0.440445 4.57673,-1.137117 6.31602,-1.54816 l 3.16234,-0.747357 0.30447,1.162391 c 0.16747,0.639315 0.39266,1.528854 0.50043,1.976752 l 0.19594,0.814361 -8.3741,2.024983 c -4.60575,1.113737 -8.60995,2.086048 -8.89821,2.160691 -0.4444,0.115075 -1.00552,-1.898579 -3.68922,-13.239341 z"
         id="path1847"
         sodipodi:nodetypes="sssscsssscsscssssssssssssscssscssssssssssssssssssssssscssssscssssssscssssssssscsscsss"
         inkscape:label="emailText" />
      <path
         style="display:inline;fill:#2b7b92;stroke-width:1"
         d="m 32.583498,93.498768 c -3.639078,-1.355808 -6.712202,-2.560806 -6.829166,-2.67777 -0.116963,-0.116963 1.276463,-1.843756 3.096504,-3.837321 1.82004,-1.993562 3.906457,-4.289264 4.636479,-5.101562 l 1.327319,-1.476899 1.795427,6.277392 c 0.987485,3.452566 2.003305,6.961392 2.257379,7.797392 0.25407,0.836 0.432835,1.511872 0.397254,1.501936 -0.03558,-0.0099 -3.042121,-1.12736 -6.681196,-2.483168 z M 183.52159,58.48 c -0.39951,-1.155309 -3.64812,-12.860131 -3.5864,-12.921859 0.11665,-0.11665 9.81299,4.502121 9.90303,4.717229 0.0802,0.191689 -5.853,8.60463 -6.06842,8.60463 -0.0604,0 -0.17213,-0.18 -0.24821,-0.4 z M 87.04,19.036779 c 1.707555,-2.156053 6.354006,-4.799292 10.24,-5.825255 3.28567,-0.867469 9.39644,-0.735301 12.4727,0.269767 l 2.3927,0.781738 -12.472702,2.501483 C 92.812714,18.140327 87.056,19.350788 86.88,19.454424 c -0.176,0.103636 -0.104,-0.0843 0.16,-0.417645 z"
         id="path1833"
         sodipodi:nodetypes="sssscsscssssssssscsss"
         inkscape:label="envelopeHighlightTeal" />
      <path
         style="display:inline;fill:#d36608;stroke-width:1"
         d="M 38.08,188.04768 C 31.24378,187.48903 24.31977,184.71984 20.797676,181.13579 15.988309,176.24181 9.5941402,167.85545 4.7103546,160.03625 2.6966401,156.81218 2.4188931,156.17661 2.2989338,154.51819 2.0247689,150.7279 4.4693965,145.32181 9.2257994,139.2 11.421462,136.37404 19.95623,127.48231 23.063375,124.78369 l 1.783376,-1.54891 1.974271,6.94261 c 1.085849,3.81844 2.245943,7.88935 2.577986,9.04648 l 0.603715,2.10387 -1.574656,2.37613 C 25.265414,148.47626 21.12,156.45927 21.12,157.77734 c 0,0.36927 1.072973,0.17943 6.653776,-1.17726 23.973962,-5.82807 62.786,-25.66729 97.986224,-50.08679 3.784,-2.62508 8.42178,-5.66208 8.42178,-5.66208 0,0 -2.20832,-3.543546 -4.59244,-7.109736 -2.85142,-4.265199 -4.51465,-6.896027 -4.51465,-6.896027 0,0 3.36531,0.5291 6.44531,0.989043 45.05125,6.727609 55.98962,8.374629 56.71801,8.851893 0.64639,0.423527 0.76082,1.090384 0.59316,1.792742 -2.20104,9.220465 -6.56912,23.528245 -10.17697,33.360875 -3.06933,8.36496 -10.97237,27.96687 -10.97237,27.96687 l -6.43252,-11.05041 c 0,0 -2.01209,0.92307 -3.71556,1.85572 -5.75484,3.15314 -23.21028,11.80624 -29.83869,14.79178 -26.48993,11.93148 -50.744679,19.63213 -69.77506,22.1529 -6.495212,0.80008 -13.791706,0.99629 -19.84,0.49082 z"
         id="path1835"
         sodipodi:nodetypes="cssssscsscsssscscsssscccscc"
         inkscape:label="arrowMediumOrange" />
      <path
         style="display:inline;fill:#c35c0a;stroke-width:1"
         d="m 40.481517,188.21521 c -0.05743,-0.0576 -1.204442,-0.17192 -2.548906,-0.25397 -1.344461,-0.0821 -2.833309,-0.31011 -3.308544,-0.50678 -0.475238,-0.19667 -1.276739,-0.41628 -1.781117,-0.48803 -0.504377,-0.0717 -1.296376,-0.28975 -1.759999,-0.48446 -0.463623,-0.19471 -1.159181,-0.39158 -1.545685,-0.43749 -0.386504,-0.0459 -1.034504,-0.2673 -1.44,-0.49196 -2.85793,-1.32252 -6.080027,-3.03627 -8.181928,-5.36637 C 18.993902,179.13934 18.24,178.21417 18.24,178.1302 c 0,-0.084 -0.809477,-0.99361 -1.798839,-2.02143 -3.211753,-3.33661 -11.1078292,-14.74078 -13.6031335,-19.43381 1.8391293,4.63088 10.4927005,4.96047 18.3067555,3.33363 0,0 2.55847,-0.39409 8.139273,-1.75078 11.970609,-3.06068 29.667506,-11.149 29.667506,-11.149 0,0 3.568513,9.58236 4.276502,11.06114 0.301662,0.63008 0.713386,1.46283 0.960077,1.95125 0.266481,0.5276 0.914093,2.15081 1.542141,3.55881 1.8536,4.3529 3.794836,8.7887 5.732771,12.96 0.872133,1.793 1.505407,3.89002 2.491206,5.46802 1.337981,2.12173 1.279517,2.25712 -1.154259,2.67309 -1.292582,0.22091 -3.558634,0.7075 -5.12,1.09942 -0.704,0.17671 -1.892982,0.39399 -2.642186,0.48285 -0.749203,0.0888 -1.486105,0.23814 -1.637564,0.33175 -0.15146,0.0936 -1.266477,0.24029 -2.477815,0.32598 -1.211341,0.0857 -2.735225,0.28819 -3.386416,0.45003 -0.651187,0.16183 -1.242163,0.23605 -1.31328,0.16493 -0.07112,-0.0711 -1.521321,0.0259 -3.222675,0.21563 -2.892387,0.32252 -12.287526,0.59534 -12.518547,0.36351 z"
         id="path1831"
         sodipodi:nodetypes="scscssccssccccsscccsscsssssss"
         inkscape:label="arrowDarkOrange" />
      <path
         style="display:inline;fill:#a34310;stroke-width:1"
         d="M 8.3989459,160.47444 C 5.4241517,159.82825 3.9839939,158.89408 3.0389716,156.99767 1.6741822,154.25889 2.1460445,151.09952 4.6401299,146.27704 7.402601,140.93562 14.676984,132.4022 22.412197,125.429 l 2.434441,-2.19461 1.974328,6.9428 c 1.08588,3.81855 2.245999,7.88955 2.578042,9.04668 l 0.603715,2.10387 -1.574656,2.37613 C 25.238488,148.51689 21.12,156.46073 21.12,157.79984 c 0,0.68601 8.451577,-1.38041 15.861414,-3.87814 17.694615,-5.96456 38.306304,-15.90575 60.458586,-29.15968 8.56118,-5.12224 9.44671,-5.6803 20,-12.6038 5.22033,-3.42481 15.35147,-10.40422 16.25524,-11.19835 0.0524,-0.046 -1.75488,-3.016828 -4.01614,-6.601777 -3.30654,-5.242113 -4.64014,-7.405338 -4.54802,-7.442764 0.0319,-0.01297 0.40513,0.511213 0.69409,0.865426 0.40416,0.495418 2.63649,3.912067 4.96074,7.59256 l 4.22591,6.691805 -4.86591,3.48733 c -29.9761,21.48349 -66.445536,41.26516 -92.468716,50.15668 -12.935669,4.41982 -23.187422,6.08839 -29.2782481,4.76531 z"
         id="path1823"
         inkscape:label="arrowHighlight"
         sodipodi:nodetypes="sssscsscsssssssssscsss" />
      <path
         id="path1817"
         style="display:inline;fill:#762c0c;stroke-width:1"
         d="M 11.342324,158.08262 C 8.2873888,157.63404 5.661448,156.03374 5.242719,154.36539 4.747543,152.39245 5.31122,149.32054 6.6775571,146.54584 7.4103946,145.05763 8.3128301,143.48 8.682969,143.04 l 0.6729798,-0.8 -0.5106432,0.85755 c -0.5623763,0.94443 -0.5175773,1.08682 1.1628964,3.69609 0.479489,0.7445 0.871798,1.41793 0.871798,1.49651 0,0.0786 0.751918,1.26944 1.670929,2.64636 0.919011,1.37692 1.687078,2.57549 1.706815,2.66349 0.183756,0.81932 0.866041,1.97224 1.255615,2.12173 0.265631,0.10193 0.417797,0.29078 0.338148,0.41965 -0.296749,0.48015 0.858505,1.67496 1.465924,1.51611 0.331413,-0.0867 0.602569,-0.0459 0.602569,0.0906 0,0.59557 -3.5651,0.77689 -6.577676,0.33453 z M 18.48,157.86807 c 0.22,-0.0888 0.58,-0.0888 0.8,0 0.22,0.0888 0.04,0.16141 -0.4,0.16141 -0.44,0 -0.62,-0.0726 -0.4,-0.16141 z M 21.1298,156.64 c 0,-0.176 0.13959,-0.536 0.3102,-0.8 0.17061,-0.264 0.3102,-0.336 0.3102,-0.16 0,0.176 -0.13959,0.536 -0.3102,0.8 -0.17061,0.264 -0.3102,0.336 -0.3102,0.16 z m 0.657026,-1.6 c 0,-0.176 0.275928,-0.824 0.613174,-1.44 0.337246,-0.616 0.613174,-0.976 0.613174,-0.8 0,0.176 -0.275928,0.824 -0.613174,1.44 -0.337246,0.616 -0.613174,0.976 -0.613174,0.8 z m -11.18467,3.03697 C 8.6705315,157.66722 6.5236806,156.57818 5.7774755,155.62954 3.1427981,152.28009 6.4683882,144.408 14.239022,135.6 c 1.513898,-1.716 2.844381,-3.12 2.956629,-3.12 0.112248,0 -0.167926,0.396 -0.622609,0.88 -0.692382,0.73703 -0.767098,0.98398 -0.459869,1.52 0.201755,0.352 0.447002,0.712 0.544995,0.8 0.09799,0.088 0.367462,0.628 0.598822,1.2 0.23136,0.572 0.547185,1.04 0.701832,1.04 0.154648,0 0.247032,0.108 0.205299,0.24 -0.04173,0.132 0.390267,0.91395 0.96,1.73766 0.569733,0.82371 1.035879,1.65171 1.035879,1.84 0,0.18829 0.108,0.34346 0.24,0.34484 0.132,10e-4 0.3989,0.32537 0.593112,0.72 0.935805,1.9015 2.437639,4.56486 2.657264,4.7124 0.527641,0.35446 0.614879,1.74275 0.16427,2.61413 -0.259095,0.50103 -0.39831,0.91097 -0.309367,0.91097 0.08894,0 0.455567,-0.576 0.814721,-1.28 0.359154,-0.704 0.723394,-1.28 0.809421,-1.28 0.08603,0 -0.543496,1.404 -1.398943,3.12 -0.855446,1.716 -1.807367,3.79102 -2.11538,4.61117 -0.360888,0.96093 -0.804502,1.56359 -1.247561,1.69485 -1.198776,0.35515 -8.310166,0.47964 -9.765381,0.17095 z M 25.6,147.52 c 0.188385,-0.352 0.414518,-0.64 0.502518,-0.64 0.088,0 0.0059,0.288 -0.182518,0.64 -0.188385,0.352 -0.414518,0.64 -0.502518,0.64 -0.088,0 -0.0059,-0.288 0.182518,-0.64 z m 1.6,-2.56 c 0.188385,-0.352 0.414518,-0.64 0.502518,-0.64 0.088,0 0.0059,0.288 -0.182518,0.64 -0.188385,0.352 -0.414518,0.64 -0.502518,0.64 -0.088,0 -0.0059,-0.288 0.182518,-0.64 z M 9.76,157.95238 c -1.8392029,-0.58167 -3.0847226,-1.28807 -4,-2.26863 -0.7144714,-0.76543 -0.7976778,-1.11935 -0.778279,-3.3104 0.026054,-2.94272 0.7058812,-4.86933 3.1120588,-8.81951 2.6115902,-4.2874 5.3704792,-7.59083 11.3864262,-13.63384 3.883911,-3.90138 5.627221,-5.4544 5.747334,-5.12 0.09483,0.264 1.201311,4.06748 2.458855,8.45218 l 2.286445,7.97218 -2.378521,3.70782 c -2.330024,3.63222 -5.912079,10.56441 -6.318393,12.2277 -0.173654,0.71088 -0.429428,0.87062 -1.66521,1.04 -2.440845,0.33456 -8.490917,0.18254 -9.850716,-0.2475 z M 133.32337,100.08 c -3.86868,-6.081715 -8.20797,-13.123757 -7.81576,-12.72 0.4166,0.428861 1.72379,2.30344 7.66374,11.793146 0.90886,1.452004 1.89968,2.884634 1.80829,2.884634 -0.0914,0 -1.06849,-1.03378 -1.65627,-1.95778 z"
         inkscape:label="backArrow"
         sodipodi:nodetypes="sssscsssssssssssssssssssssssssssssssssssscssssssssssssssssssssssssssscsssscsssc" />
    </g>
  </g>
</svg>
